<?xml version="1.0" encoding="utf-8"?>
<!DOCTYPE svg PUBLIC "-//W3C//DTD SVG 20010904//EN"
        "http://www.w3.org/TR/2001/REC-SVG-20010904/DTD/svg10.dtd">
<svg viewBox="0 0 15 15" height="100" width="100" xml:lang="fr"
     xmlns="http://www.w3.org/2000/svg"
     xmlns:xlink="http://www.w3.org/1999/xlink">
            <rect x="0" y="0" height="1" width="1" fill="#FA1FEE"/>
        <rect x="14" y="0" height="1" width="1" fill="#FA1FEE"/>
        <rect x="1" y="0" height="1" width="1" fill="#FA1FEE"/>
        <rect x="13" y="0" height="1" width="1" fill="#FA1FEE"/>
        <rect x="2" y="0" height="1" width="1" fill="#FA1FEE"/>
        <rect x="12" y="0" height="1" width="1" fill="#FA1FEE"/>
        <rect x="3" y="0" height="1" width="1" fill="#C73B8E"/>
        <rect x="11" y="0" height="1" width="1" fill="#C73B8E"/>
        <rect x="4" y="0" height="1" width="1" fill="#991EB5"/>
        <rect x="10" y="0" height="1" width="1" fill="#991EB5"/>
        <rect x="5" y="0" height="1" width="1" fill="#991EB5"/>
        <rect x="9" y="0" height="1" width="1" fill="#991EB5"/>
        <rect x="6" y="0" height="1" width="1" fill="#991EB5"/>
        <rect x="8" y="0" height="1" width="1" fill="#991EB5"/>
        <rect x="7" y="0" height="1" width="1" fill="#FA1FEE"/>
                <rect x="0" y="1" height="1" width="1" fill="#FA1FEE"/>
        <rect x="14" y="1" height="1" width="1" fill="#FA1FEE"/>
        <rect x="1" y="1" height="1" width="1" fill="#7449D5"/>
        <rect x="13" y="1" height="1" width="1" fill="#7449D5"/>
        <rect x="2" y="1" height="1" width="1" fill="#B5B8EE"/>
        <rect x="12" y="1" height="1" width="1" fill="#B5B8EE"/>
        <rect x="3" y="1" height="1" width="1" fill="#94E880"/>
        <rect x="11" y="1" height="1" width="1" fill="#94E880"/>
        <rect x="4" y="1" height="1" width="1" fill="#991EB5"/>
        <rect x="10" y="1" height="1" width="1" fill="#991EB5"/>
        <rect x="5" y="1" height="1" width="1" fill="#954A00"/>
        <rect x="9" y="1" height="1" width="1" fill="#954A00"/>
        <rect x="6" y="1" height="1" width="1" fill="#7449D5"/>
        <rect x="8" y="1" height="1" width="1" fill="#7449D5"/>
        <rect x="7" y="1" height="1" width="1" fill="#991EB5"/>
                <rect x="0" y="2" height="1" width="1" fill="#6451DB"/>
        <rect x="14" y="2" height="1" width="1" fill="#6451DB"/>
        <rect x="1" y="2" height="1" width="1" fill="#FA1FEE"/>
        <rect x="13" y="2" height="1" width="1" fill="#FA1FEE"/>
        <rect x="2" y="2" height="1" width="1" fill="#954A00"/>
        <rect x="12" y="2" height="1" width="1" fill="#954A00"/>
        <rect x="3" y="2" height="1" width="1" fill="#19B6FB"/>
        <rect x="11" y="2" height="1" width="1" fill="#19B6FB"/>
        <rect x="4" y="2" height="1" width="1" fill="#FA1FEE"/>
        <rect x="10" y="2" height="1" width="1" fill="#FA1FEE"/>
        <rect x="5" y="2" height="1" width="1" fill="#0EE704"/>
        <rect x="9" y="2" height="1" width="1" fill="#0EE704"/>
        <rect x="6" y="2" height="1" width="1" fill="#0EE704"/>
        <rect x="8" y="2" height="1" width="1" fill="#0EE704"/>
        <rect x="7" y="2" height="1" width="1" fill="#019222"/>
                <rect x="0" y="3" height="1" width="1" fill="#B5B8EE"/>
        <rect x="14" y="3" height="1" width="1" fill="#B5B8EE"/>
        <rect x="1" y="3" height="1" width="1" fill="#F28FCF"/>
        <rect x="13" y="3" height="1" width="1" fill="#F28FCF"/>
        <rect x="2" y="3" height="1" width="1" fill="#94E880"/>
        <rect x="12" y="3" height="1" width="1" fill="#94E880"/>
        <rect x="3" y="3" height="1" width="1" fill="#0EE704"/>
        <rect x="11" y="3" height="1" width="1" fill="#0EE704"/>
        <rect x="4" y="3" height="1" width="1" fill="#6451DB"/>
        <rect x="10" y="3" height="1" width="1" fill="#6451DB"/>
        <rect x="5" y="3" height="1" width="1" fill="#991EB5"/>
        <rect x="9" y="3" height="1" width="1" fill="#991EB5"/>
        <rect x="6" y="3" height="1" width="1" fill="#954A00"/>
        <rect x="8" y="3" height="1" width="1" fill="#954A00"/>
        <rect x="7" y="3" height="1" width="1" fill="#C73B8E"/>
                <rect x="0" y="4" height="1" width="1" fill="#19B6FB"/>
        <rect x="14" y="4" height="1" width="1" fill="#19B6FB"/>
        <rect x="1" y="4" height="1" width="1" fill="#94E880"/>
        <rect x="13" y="4" height="1" width="1" fill="#94E880"/>
        <rect x="2" y="4" height="1" width="1" fill="#019222"/>
        <rect x="12" y="4" height="1" width="1" fill="#019222"/>
        <rect x="3" y="4" height="1" width="1" fill="#FA1FEE"/>
        <rect x="11" y="4" height="1" width="1" fill="#FA1FEE"/>
        <rect x="4" y="4" height="1" width="1" fill="#94E880"/>
        <rect x="10" y="4" height="1" width="1" fill="#94E880"/>
        <rect x="5" y="4" height="1" width="1" fill="#19B6FB"/>
        <rect x="9" y="4" height="1" width="1" fill="#19B6FB"/>
        <rect x="6" y="4" height="1" width="1" fill="#954A00"/>
        <rect x="8" y="4" height="1" width="1" fill="#954A00"/>
        <rect x="7" y="4" height="1" width="1" fill="#FA1FEE"/>
                <rect x="0" y="5" height="1" width="1" fill="#019222"/>
        <rect x="14" y="5" height="1" width="1" fill="#019222"/>
        <rect x="1" y="5" height="1" width="1" fill="#954A00"/>
        <rect x="13" y="5" height="1" width="1" fill="#954A00"/>
        <rect x="2" y="5" height="1" width="1" fill="#B5B8EE"/>
        <rect x="12" y="5" height="1" width="1" fill="#B5B8EE"/>
        <rect x="3" y="5" height="1" width="1" fill="#19B6FB"/>
        <rect x="11" y="5" height="1" width="1" fill="#19B6FB"/>
        <rect x="4" y="5" height="1" width="1" fill="#94E880"/>
        <rect x="10" y="5" height="1" width="1" fill="#94E880"/>
        <rect x="5" y="5" height="1" width="1" fill="#6451DB"/>
        <rect x="9" y="5" height="1" width="1" fill="#6451DB"/>
        <rect x="6" y="5" height="1" width="1" fill="#FA1FEE"/>
        <rect x="8" y="5" height="1" width="1" fill="#FA1FEE"/>
        <rect x="7" y="5" height="1" width="1" fill="#19B6FB"/>
                <rect x="0" y="6" height="1" width="1" fill="#C73B8E"/>
        <rect x="14" y="6" height="1" width="1" fill="#C73B8E"/>
        <rect x="1" y="6" height="1" width="1" fill="#C73B8E"/>
        <rect x="13" y="6" height="1" width="1" fill="#C73B8E"/>
        <rect x="2" y="6" height="1" width="1" fill="#019222"/>
        <rect x="12" y="6" height="1" width="1" fill="#019222"/>
        <rect x="3" y="6" height="1" width="1" fill="#F28FCF"/>
        <rect x="11" y="6" height="1" width="1" fill="#F28FCF"/>
        <rect x="4" y="6" height="1" width="1" fill="#F28FCF"/>
        <rect x="10" y="6" height="1" width="1" fill="#F28FCF"/>
        <rect x="5" y="6" height="1" width="1" fill="#C73B8E"/>
        <rect x="9" y="6" height="1" width="1" fill="#C73B8E"/>
        <rect x="6" y="6" height="1" width="1" fill="#991EB5"/>
        <rect x="8" y="6" height="1" width="1" fill="#991EB5"/>
        <rect x="7" y="6" height="1" width="1" fill="#FA1FEE"/>
                <rect x="0" y="7" height="1" width="1" fill="#0EE704"/>
        <rect x="14" y="7" height="1" width="1" fill="#0EE704"/>
        <rect x="1" y="7" height="1" width="1" fill="#C73B8E"/>
        <rect x="13" y="7" height="1" width="1" fill="#C73B8E"/>
        <rect x="2" y="7" height="1" width="1" fill="#954A00"/>
        <rect x="12" y="7" height="1" width="1" fill="#954A00"/>
        <rect x="3" y="7" height="1" width="1" fill="#FA1FEE"/>
        <rect x="11" y="7" height="1" width="1" fill="#FA1FEE"/>
        <rect x="4" y="7" height="1" width="1" fill="#94E880"/>
        <rect x="10" y="7" height="1" width="1" fill="#94E880"/>
        <rect x="5" y="7" height="1" width="1" fill="#F28FCF"/>
        <rect x="9" y="7" height="1" width="1" fill="#F28FCF"/>
        <rect x="6" y="7" height="1" width="1" fill="#F28FCF"/>
        <rect x="8" y="7" height="1" width="1" fill="#F28FCF"/>
        <rect x="7" y="7" height="1" width="1" fill="#B5B8EE"/>
                <rect x="0" y="8" height="1" width="1" fill="#0EE704"/>
        <rect x="14" y="8" height="1" width="1" fill="#0EE704"/>
        <rect x="1" y="8" height="1" width="1" fill="#6451DB"/>
        <rect x="13" y="8" height="1" width="1" fill="#6451DB"/>
        <rect x="2" y="8" height="1" width="1" fill="#954A00"/>
        <rect x="12" y="8" height="1" width="1" fill="#954A00"/>
        <rect x="3" y="8" height="1" width="1" fill="#019222"/>
        <rect x="11" y="8" height="1" width="1" fill="#019222"/>
        <rect x="4" y="8" height="1" width="1" fill="#6451DB"/>
        <rect x="10" y="8" height="1" width="1" fill="#6451DB"/>
        <rect x="5" y="8" height="1" width="1" fill="#19B6FB"/>
        <rect x="9" y="8" height="1" width="1" fill="#19B6FB"/>
        <rect x="6" y="8" height="1" width="1" fill="#F28FCF"/>
        <rect x="8" y="8" height="1" width="1" fill="#F28FCF"/>
        <rect x="7" y="8" height="1" width="1" fill="#FA1FEE"/>
                <rect x="0" y="9" height="1" width="1" fill="#954A00"/>
        <rect x="14" y="9" height="1" width="1" fill="#954A00"/>
        <rect x="1" y="9" height="1" width="1" fill="#B5B8EE"/>
        <rect x="13" y="9" height="1" width="1" fill="#B5B8EE"/>
        <rect x="2" y="9" height="1" width="1" fill="#6451DB"/>
        <rect x="12" y="9" height="1" width="1" fill="#6451DB"/>
        <rect x="3" y="9" height="1" width="1" fill="#94E880"/>
        <rect x="11" y="9" height="1" width="1" fill="#94E880"/>
        <rect x="4" y="9" height="1" width="1" fill="#954A00"/>
        <rect x="10" y="9" height="1" width="1" fill="#954A00"/>
        <rect x="5" y="9" height="1" width="1" fill="#0EE704"/>
        <rect x="9" y="9" height="1" width="1" fill="#0EE704"/>
        <rect x="6" y="9" height="1" width="1" fill="#019222"/>
        <rect x="8" y="9" height="1" width="1" fill="#019222"/>
        <rect x="7" y="9" height="1" width="1" fill="#94E880"/>
                <rect x="0" y="10" height="1" width="1" fill="#94E880"/>
        <rect x="14" y="10" height="1" width="1" fill="#94E880"/>
        <rect x="1" y="10" height="1" width="1" fill="#0EE704"/>
        <rect x="13" y="10" height="1" width="1" fill="#0EE704"/>
        <rect x="2" y="10" height="1" width="1" fill="#6451DB"/>
        <rect x="12" y="10" height="1" width="1" fill="#6451DB"/>
        <rect x="3" y="10" height="1" width="1" fill="#7449D5"/>
        <rect x="11" y="10" height="1" width="1" fill="#7449D5"/>
        <rect x="4" y="10" height="1" width="1" fill="#B5B8EE"/>
        <rect x="10" y="10" height="1" width="1" fill="#B5B8EE"/>
        <rect x="5" y="10" height="1" width="1" fill="#19B6FB"/>
        <rect x="9" y="10" height="1" width="1" fill="#19B6FB"/>
        <rect x="6" y="10" height="1" width="1" fill="#6451DB"/>
        <rect x="8" y="10" height="1" width="1" fill="#6451DB"/>
        <rect x="7" y="10" height="1" width="1" fill="#F28FCF"/>
                <rect x="0" y="11" height="1" width="1" fill="#F28FCF"/>
        <rect x="14" y="11" height="1" width="1" fill="#F28FCF"/>
        <rect x="1" y="11" height="1" width="1" fill="#B5B8EE"/>
        <rect x="13" y="11" height="1" width="1" fill="#B5B8EE"/>
        <rect x="2" y="11" height="1" width="1" fill="#954A00"/>
        <rect x="12" y="11" height="1" width="1" fill="#954A00"/>
        <rect x="3" y="11" height="1" width="1" fill="#7449D5"/>
        <rect x="11" y="11" height="1" width="1" fill="#7449D5"/>
        <rect x="4" y="11" height="1" width="1" fill="#F28FCF"/>
        <rect x="10" y="11" height="1" width="1" fill="#F28FCF"/>
        <rect x="5" y="11" height="1" width="1" fill="#6451DB"/>
        <rect x="9" y="11" height="1" width="1" fill="#6451DB"/>
        <rect x="6" y="11" height="1" width="1" fill="#94E880"/>
        <rect x="8" y="11" height="1" width="1" fill="#94E880"/>
        <rect x="7" y="11" height="1" width="1" fill="#FA1FEE"/>
                <rect x="0" y="12" height="1" width="1" fill="#B5B8EE"/>
        <rect x="14" y="12" height="1" width="1" fill="#B5B8EE"/>
        <rect x="1" y="12" height="1" width="1" fill="#019222"/>
        <rect x="13" y="12" height="1" width="1" fill="#019222"/>
        <rect x="2" y="12" height="1" width="1" fill="#6451DB"/>
        <rect x="12" y="12" height="1" width="1" fill="#6451DB"/>
        <rect x="3" y="12" height="1" width="1" fill="#FA1FEE"/>
        <rect x="11" y="12" height="1" width="1" fill="#FA1FEE"/>
        <rect x="4" y="12" height="1" width="1" fill="#C73B8E"/>
        <rect x="10" y="12" height="1" width="1" fill="#C73B8E"/>
        <rect x="5" y="12" height="1" width="1" fill="#94E880"/>
        <rect x="9" y="12" height="1" width="1" fill="#94E880"/>
        <rect x="6" y="12" height="1" width="1" fill="#19B6FB"/>
        <rect x="8" y="12" height="1" width="1" fill="#19B6FB"/>
        <rect x="7" y="12" height="1" width="1" fill="#19B6FB"/>
                <rect x="0" y="13" height="1" width="1" fill="#991EB5"/>
        <rect x="14" y="13" height="1" width="1" fill="#991EB5"/>
        <rect x="1" y="13" height="1" width="1" fill="#94E880"/>
        <rect x="13" y="13" height="1" width="1" fill="#94E880"/>
        <rect x="2" y="13" height="1" width="1" fill="#B5B8EE"/>
        <rect x="12" y="13" height="1" width="1" fill="#B5B8EE"/>
        <rect x="3" y="13" height="1" width="1" fill="#6451DB"/>
        <rect x="11" y="13" height="1" width="1" fill="#6451DB"/>
        <rect x="4" y="13" height="1" width="1" fill="#FA1FEE"/>
        <rect x="10" y="13" height="1" width="1" fill="#FA1FEE"/>
        <rect x="5" y="13" height="1" width="1" fill="#019222"/>
        <rect x="9" y="13" height="1" width="1" fill="#019222"/>
        <rect x="6" y="13" height="1" width="1" fill="#C73B8E"/>
        <rect x="8" y="13" height="1" width="1" fill="#C73B8E"/>
        <rect x="7" y="13" height="1" width="1" fill="#19B6FB"/>
                <rect x="0" y="14" height="1" width="1" fill="#019222"/>
        <rect x="14" y="14" height="1" width="1" fill="#019222"/>
        <rect x="1" y="14" height="1" width="1" fill="#6451DB"/>
        <rect x="13" y="14" height="1" width="1" fill="#6451DB"/>
        <rect x="2" y="14" height="1" width="1" fill="#019222"/>
        <rect x="12" y="14" height="1" width="1" fill="#019222"/>
        <rect x="3" y="14" height="1" width="1" fill="#C73B8E"/>
        <rect x="11" y="14" height="1" width="1" fill="#C73B8E"/>
        <rect x="4" y="14" height="1" width="1" fill="#C73B8E"/>
        <rect x="10" y="14" height="1" width="1" fill="#C73B8E"/>
        <rect x="5" y="14" height="1" width="1" fill="#6451DB"/>
        <rect x="9" y="14" height="1" width="1" fill="#6451DB"/>
        <rect x="6" y="14" height="1" width="1" fill="#F28FCF"/>
        <rect x="8" y="14" height="1" width="1" fill="#F28FCF"/>
        <rect x="7" y="14" height="1" width="1" fill="#0EE704"/>
        </svg>